<?xml version="1.0" encoding="iso-8859-1"?>
<!-- Generator: Adobe Illustrator 19.0.0, SVG Export Plug-In . SVG Version: 6.00 Build 0)  -->
<svg version="1.1" id="Capa_1" xmlns="http://www.w3.org/2000/svg" xmlns:xlink="http://www.w3.org/1999/xlink" x="0px" y="0px"
	 viewBox="0 0 512 512" style="enable-background:new 0 0 512 512;" xml:space="preserve">
<g>
	<g>
		<g>
			<path d="M443.733,392.533h-25.6V157.867C418.036,70.72,347.414,0.097,260.267,0h-8.533
				C164.586,0.097,93.964,70.72,93.867,157.867v234.667h-25.6c-18.843,0.02-34.113,15.29-34.133,34.133v51.2
				c0.02,18.843,15.29,34.113,34.133,34.133h375.467c18.843-0.02,34.113-15.29,34.133-34.133v-51.2
				C477.847,407.824,462.576,392.553,443.733,392.533z M110.933,157.867c0.089-77.725,63.075-140.711,140.8-140.8h8.533
				c77.725,0.089,140.711,63.075,140.8,140.8v234.667h-51.2c-0.02-18.843-15.29-34.113-34.133-34.133h-19.157l-6.093-21.392
				c-5.611-24.779-8.562-50.086-8.804-75.491c20.388-7.258,34.017-26.543,34.054-48.184c0-0.358,0-0.717-0.009-1.075
				c16.645-4.295,27.5-20.297,25.336-37.351c-2.164-17.054-16.671-29.838-33.861-29.84h-0.192
				c-2.281-24.987-23.811-43.76-48.876-42.619c-25.065,1.142-44.799,21.795-44.799,46.885c0,1.434,0.067,2.854,0.192,4.267h-0.192
				c-23.564,0-42.667,19.102-42.667,42.667s19.102,42.667,42.667,42.667c2.24-0.002,4.476-0.194,6.683-0.575
				c2.757,4.824,6.281,9.167,10.432,12.86l-0.049,5.465c0.019,27.03-2.963,53.978-8.892,80.35l-6.085,21.367h-19.156
				c-18.843,0.02-34.113,15.29-34.133,34.133h-51.2V157.867z M232.742,160.95c-5.376-11.795-2.585-25.708,6.925-34.516
				c9.51-8.808,23.596-10.527,34.945-4.264c11.349,6.263,17.404,19.097,15.022,31.838c-0.484,3.015,0.68,6.058,3.052,7.981
				c2.372,1.923,5.59,2.432,8.44,1.336c6.307-2.405,13.439-0.866,18.193,3.926c4.754,4.792,6.236,11.936,3.78,18.224
				c-2.456,6.288-8.388,10.536-15.131,10.838c-0.325-0.05-1.075-0.121-1.408-0.129c-2.606-0.071-5.101,1.052-6.775,3.05
				c-1.674,1.998-2.343,4.651-1.817,7.204c3.641,17.441-6.771,34.741-23.887,39.689c-17.116,4.948-35.154-4.129-41.379-20.822
				c-1.627-4.359-6.453-6.603-10.834-5.037c-10.653,3.944-22.631,0.395-29.416-8.715s-6.755-21.603,0.075-30.68
				c6.83-9.077,18.825-12.567,29.458-8.572c3.19,1.152,6.759,0.306,9.092-2.155C233.409,167.683,234.063,164.074,232.742,160.95z
				 M278.833,358.4h-45.667l4.75-16.667c6.054-26.355,9.232-53.289,9.477-80.329c5.488,2.033,11.288,3.092,17.14,3.129l0.123-0.006
				c0.407,25.987,3.564,51.859,9.418,77.181L278.833,358.4z M290.133,375.467h25.6c9.421,0.011,17.056,7.646,17.067,17.067H179.2
				c0.011-9.421,7.645-17.056,17.067-17.067H290.133z M460.8,477.867c-0.011,9.421-7.645,17.056-17.067,17.067H68.267
				c-9.421-0.011-17.056-7.645-17.067-17.067v-51.2c0.011-9.421,7.645-17.056,17.067-17.067h375.467
				c9.421,0.011,17.056,7.645,17.067,17.067V477.867z"/>
			<path d="M247.775,51.275c2.263-0.082,4.4-1.059,5.941-2.718s2.36-3.862,2.275-6.124c-0.304-4.646-4.178-8.249-8.833-8.217
				c-66.613,2.232-119.392,57-119.158,123.65c0,4.713,3.82,8.533,8.533,8.533s8.533-3.82,8.533-8.533
				C144.861,100.414,190.354,53.201,247.775,51.275z"/>
			<path d="M256,426.667c-14.139,0-25.6,11.462-25.6,25.6c0,14.138,11.462,25.6,25.6,25.6c14.138,0,25.6-11.462,25.6-25.6
				C281.585,438.135,270.132,426.682,256,426.667z M256,460.8c-4.713,0-8.533-3.821-8.533-8.533c0-4.713,3.82-8.533,8.533-8.533
				c4.713,0,8.533,3.821,8.533,8.533C264.529,456.978,260.711,460.795,256,460.8z"/>
			<path d="M186.025,443.904c-0.534,0.091-1.051,0.263-1.533,0.508c-0.546,0.187-1.064,0.447-1.542,0.771l-1.275,1.025
				c-1.561,1.634-2.445,3.799-2.475,6.059c0.014,1.115,0.246,2.216,0.683,3.242c0.413,1.044,1.021,2,1.792,2.817
				c2.886,2.912,7.432,3.371,10.842,1.094s4.729-6.65,3.147-10.433C194.081,445.204,190.04,443.073,186.025,443.904z"/>
			<path d="M328.958,445.183c-0.435-0.339-0.926-0.6-1.45-0.771c-0.51-0.258-1.059-0.43-1.625-0.508
				c-1.093-0.258-2.232-0.258-3.325,0c-0.534,0.091-1.051,0.263-1.533,0.508c-0.546,0.187-1.064,0.447-1.542,0.771l-1.275,1.025
				c-3.3,3.365-3.3,8.752,0,12.117c0.425,0.341,0.85,0.683,1.275,1.021c0.477,0.324,0.996,0.583,1.542,0.771
				c0.483,0.245,1,0.418,1.533,0.513c0.565,0.094,1.136,0.151,1.709,0.171c3.45-0.014,6.556-2.096,7.879-5.282
				c1.323-3.187,0.606-6.856-1.82-9.31C329.9,445.867,329.467,445.525,328.958,445.183z"/>
		</g>
	</g>
</g>
<g>
</g>
<g>
</g>
<g>
</g>
<g>
</g>
<g>
</g>
<g>
</g>
<g>
</g>
<g>
</g>
<g>
</g>
<g>
</g>
<g>
</g>
<g>
</g>
<g>
</g>
<g>
</g>
<g>
</g>
</svg>
